# xmcd
#
# Track frame offsets:
#	150
#	10159
#	30532
#	43675
#	55196
#	70050
#	82960
#
# Disc length: 1328 seconds
#
# Revision: 1
# Processed by: cddbd v1.5.2PL0 Copyright (c) Steve Scherf et al.
# Submitted via: audiograbber 1.83.01
#
DISCID=4c052e07
DTITLE=Tyler Jaynes - One For The Road Tyler JaynesReally Man
DYEAR=1900
DGENRE=
TTITLE0=Really Man
TTITLE1=Slow Things Down
TTITLE2=My Budweiser
TTITLE3=I Love You More Today Than I Did Yesterday
TTITLE4=Please Don´t Take My Heart When You Go
TTITLE5=The First Thing On My Mind, Is Forgetting You
TTITLE6=Where Jesus Is, Is Heaven To Me
EXTD=
EXTT0=
EXTT1=
EXTT2=
EXTT3=
EXTT4=
EXTT5=
EXTT6=
PLAYORDER=
